<?xml version="1.0" encoding="iso-8859-1"?>
<!-- Uploaded to: SVG Repo, www.svgrepo.com, Generator: SVG Repo Mixer Tools -->
<svg height="800px" width="800px" version="1.1" id="Layer_1" xmlns="http://www.w3.org/2000/svg" xmlns:xlink="http://www.w3.org/1999/xlink" 
	 viewBox="0 0 512.001 512.001" xml:space="preserve">
<path style="fill:#51D2E1;" d="M495.534,54.551l-37.985-37.985c-22.392-22.392-58.525-21.707-80.918,0.686l-32.296,32.296
	c-8.301,8.301-8.33,21.784-0.028,30.085c8.301,8.301,22.016,8.039,30.033,0.023l58.118,58.118
	c-8.017,8.017-8.273,21.737,0.028,30.038s21.789,8.277,30.089-0.023l32.296-32.296C517.263,113.1,517.927,76.944,495.534,54.551z"/>
<path style="fill:#F68B4D;" d="M474.459,149.608c-8.301-8.301-103.804-103.771-112.104-112.073
	c-8.301-8.301-21.743-8.316-30.044-0.014L26.108,343.725c-2.746,2.746-4.559,6.324-5.484,10.097L2.057,429.743
	c-5.562,22.676,0.992,46.182,17.501,62.691c0.009,0.009,0.016,0.016,0.023,0.023c16.499,16.499,39.915,23.011,62.585,17.473
	l76.085-18.422c3.781-0.924,7.394-2.743,10.145-5.494L474.6,179.811C482.902,171.51,482.76,157.91,474.459,149.608z"/>
<path style="fill:#E2E2E2;" d="M215.008,297.114c-8.301-8.301-8.301-21.76,0-30.061l40.152-40.152l79.09-79.09
	c8.301-8.301,21.76-8.301,30.061,0c8.301,8.301,8.301,21.76,0,30.061l-109.15,109.15l-10.093,10.091
	C236.768,305.415,223.309,305.415,215.008,297.114z"/>
<path style="fill:#51D2E1;" d="M255.642,398.826L113.353,256.537l-86.175,86.175c-8.301,8.301-8.301,21.76,0,30.061l112.228,112.228
	c8.301,8.301,21.76,8.301,30.061,0L255.642,398.826z"/>
<path style="fill:#E2E2E2;" d="M25.647,344.21c-2.004,2.004-4.329,6.082-5.255,9.853L1.935,429.871
	c-5.562,22.676,1.044,46.128,17.554,62.637c0.009,0.009,0.044-0.016,0.051-0.007C36.039,509,59.476,515.489,82.145,509.952
	l75.849-18.19c3.781-0.924,7.94-3.259,9.944-5.263L25.647,344.21z"/>
<path style="fill:#0D9EC0;" d="M495.534,54.551L476.593,35.61l-73.149,73.149l29.014,29.014c-8.017,8.017-8.273,21.737,0.028,30.038
	s21.789,8.277,30.089-0.023l32.296-32.296C517.263,113.1,517.927,76.944,495.534,54.551z"/>
<path style="fill:#F66131;" d="M474.459,149.608c-4.145-4.145-30.027-30.018-55.94-55.924L19.665,492.537
	c16.495,16.438,39.869,22.922,62.5,17.393l76.085-18.422c3.781-0.924,7.394-2.743,10.146-5.494L474.6,179.811
	C482.902,171.51,482.76,157.91,474.459,149.608z"/>
<path style="fill:#E2E2E2;" d="M364.35,147.853l-149.3,149.3c8.304,8.26,21.731,8.249,30.018-0.038l119.243-119.243
	C372.599,169.584,372.61,156.158,364.35,147.853z"/>
<path style="fill:#0D9EC0;" d="M184.509,327.694L83.303,428.9l56.101,56.101c8.301,8.301,21.76,8.301,30.061,0l86.175-86.175
	L184.509,327.694z"/>
<path style="fill:#C6C6C6;" d="M96.821,415.384L19.624,492.58c16.496,16.44,39.89,22.9,62.521,17.374l75.849-18.19
	c3.781-0.924,7.94-3.259,9.944-5.263L96.821,415.384z"/>
</svg>